<mxfile host="app.diagrams.net" modified="2023-07-21T14:02:18.326Z" agent="Mozilla/5.0 (Macintosh; Intel Mac OS X 10_15_7) AppleWebKit/605.1.15 (KHTML, like Gecko) Version/16.2 Safari/605.1.15" etag="pw_BH84GEIc2YYA9LCkG" version="21.6.3" type="device">
  <diagram id="C5RBs43oDa-KdzZeNtuy" name="Page-1">
    <mxGraphModel dx="795" dy="501" grid="0" gridSize="10" guides="1" tooltips="1" connect="1" arrows="1" fold="1" page="1" pageScale="1" pageWidth="827" pageHeight="1169" math="0" shadow="0">
      <root>
        <mxCell id="WIyWlLk6GJQsqaUBKTNV-0" />
        <mxCell id="WIyWlLk6GJQsqaUBKTNV-1" parent="WIyWlLk6GJQsqaUBKTNV-0" />
        <mxCell id="V2F3-J1ZZp1eKpXZ7L3o-7" value="&lt;p style=&quot;margin:0px;margin-top:4px;text-align:center;&quot;&gt;&lt;i&gt;&amp;lt;&amp;lt; trait &amp;gt;&amp;gt;&lt;/i&gt;&lt;br&gt;&lt;b&gt;ModelComponent&lt;/b&gt;&lt;br&gt;&lt;/p&gt;&lt;hr size=&quot;1&quot;&gt;&lt;p style=&quot;margin:0px;margin-left:4px;&quot;&gt;type &lt;b&gt;Model&lt;/b&gt;&lt;/p&gt;&lt;p style=&quot;margin:0px;margin-left:4px;&quot;&gt;var model: &lt;b&gt;Model&lt;/b&gt;&lt;/p&gt;" style="verticalAlign=top;align=left;overflow=fill;fontSize=12;fontFamily=Helvetica;html=1;whiteSpace=wrap;" vertex="1" parent="WIyWlLk6GJQsqaUBKTNV-1">
          <mxGeometry x="166" y="312" width="146" height="78" as="geometry" />
        </mxCell>
        <mxCell id="V2F3-J1ZZp1eKpXZ7L3o-8" value="&lt;p style=&quot;margin:0px;margin-top:4px;text-align:center;&quot;&gt;&lt;i&gt;&amp;lt;&amp;lt; trait &amp;gt;&amp;gt;&lt;/i&gt;&lt;br&gt;&lt;b&gt;ViewComponent&lt;/b&gt;&lt;br&gt;&lt;/p&gt;&lt;hr size=&quot;1&quot;&gt;&lt;p style=&quot;margin:0px;margin-left:4px;&quot;&gt;type &lt;b&gt;View&lt;/b&gt;&lt;/p&gt;&lt;p style=&quot;margin:0px;margin-left:4px;&quot;&gt;val view: &lt;b&gt;View&lt;/b&gt;&lt;/p&gt;" style="verticalAlign=top;align=left;overflow=fill;fontSize=12;fontFamily=Helvetica;html=1;whiteSpace=wrap;" vertex="1" parent="WIyWlLk6GJQsqaUBKTNV-1">
          <mxGeometry x="341" y="312" width="146" height="78" as="geometry" />
        </mxCell>
        <mxCell id="V2F3-J1ZZp1eKpXZ7L3o-9" value="&lt;p style=&quot;margin:0px;margin-top:4px;text-align:center;&quot;&gt;&lt;i&gt;&amp;lt;&amp;lt; trait &amp;gt;&amp;gt;&lt;/i&gt;&lt;br&gt;&lt;b&gt;UpdateComponent&lt;/b&gt;&lt;br&gt;&lt;/p&gt;&lt;hr size=&quot;1&quot;&gt;&lt;p style=&quot;margin:0px;margin-left:4px;&quot;&gt;type &lt;b&gt;Update&lt;/b&gt;&lt;/p&gt;&lt;p style=&quot;margin:0px;margin-left:4px;&quot;&gt;val update: &lt;b&gt;Update&lt;/b&gt;&lt;/p&gt;" style="verticalAlign=top;align=left;overflow=fill;fontSize=12;fontFamily=Helvetica;html=1;whiteSpace=wrap;" vertex="1" parent="WIyWlLk6GJQsqaUBKTNV-1">
          <mxGeometry x="516" y="312" width="146" height="78" as="geometry" />
        </mxCell>
        <mxCell id="V2F3-J1ZZp1eKpXZ7L3o-10" value="&lt;p style=&quot;margin:0px;margin-top:4px;text-align:center;&quot;&gt;&lt;i&gt;&amp;lt;&amp;lt; trait &amp;gt;&amp;gt;&lt;/i&gt;&lt;br&gt;&lt;b&gt;MVU&lt;/b&gt;&lt;br&gt;&lt;/p&gt;&lt;p style=&quot;margin:0px;margin-left:4px;&quot;&gt;&lt;br&gt;&lt;/p&gt;" style="verticalAlign=top;align=left;overflow=fill;fontSize=12;fontFamily=Helvetica;html=1;whiteSpace=wrap;" vertex="1" parent="WIyWlLk6GJQsqaUBKTNV-1">
          <mxGeometry x="356" y="500" width="115" height="38" as="geometry" />
        </mxCell>
        <mxCell id="V2F3-J1ZZp1eKpXZ7L3o-12" value="" style="endArrow=block;endSize=16;endFill=0;html=1;rounded=0;exitX=0.5;exitY=0;exitDx=0;exitDy=0;entryX=0.5;entryY=1;entryDx=0;entryDy=0;" edge="1" parent="WIyWlLk6GJQsqaUBKTNV-1" source="V2F3-J1ZZp1eKpXZ7L3o-10" target="V2F3-J1ZZp1eKpXZ7L3o-8">
          <mxGeometry width="160" relative="1" as="geometry">
            <mxPoint x="509" y="657" as="sourcePoint" />
            <mxPoint x="669" y="657" as="targetPoint" />
          </mxGeometry>
        </mxCell>
        <mxCell id="V2F3-J1ZZp1eKpXZ7L3o-13" value="" style="endArrow=block;endSize=16;endFill=0;html=1;rounded=0;entryX=0.5;entryY=1;entryDx=0;entryDy=0;exitX=0.5;exitY=0;exitDx=0;exitDy=0;" edge="1" parent="WIyWlLk6GJQsqaUBKTNV-1" source="V2F3-J1ZZp1eKpXZ7L3o-10" target="V2F3-J1ZZp1eKpXZ7L3o-7">
          <mxGeometry width="160" relative="1" as="geometry">
            <mxPoint x="328" y="436" as="sourcePoint" />
            <mxPoint x="424" y="396" as="targetPoint" />
          </mxGeometry>
        </mxCell>
        <mxCell id="V2F3-J1ZZp1eKpXZ7L3o-14" value="" style="endArrow=block;endSize=16;endFill=0;html=1;rounded=0;entryX=0.5;entryY=1;entryDx=0;entryDy=0;exitX=0.5;exitY=0;exitDx=0;exitDy=0;" edge="1" parent="WIyWlLk6GJQsqaUBKTNV-1" source="V2F3-J1ZZp1eKpXZ7L3o-10" target="V2F3-J1ZZp1eKpXZ7L3o-9">
          <mxGeometry width="160" relative="1" as="geometry">
            <mxPoint x="424" y="511" as="sourcePoint" />
            <mxPoint x="204" y="396" as="targetPoint" />
          </mxGeometry>
        </mxCell>
        <mxCell id="V2F3-J1ZZp1eKpXZ7L3o-17" value="Mixed-in with components" style="shape=note;size=20;whiteSpace=wrap;html=1;fillColor=#fff2cc;strokeColor=#d6b656;gradientColor=#ffd966;" vertex="1" parent="WIyWlLk6GJQsqaUBKTNV-1">
          <mxGeometry x="313" y="556" width="203" height="45" as="geometry" />
        </mxCell>
      </root>
    </mxGraphModel>
  </diagram>
</mxfile>
